<svg width="35" height="16" viewBox="0 0 35 16" fill="none" xmlns="http://www.w3.org/2000/svg">
<path d="M0.646438 16V0.159999H12.8784C13.4211 0.159999 13.9124 0.291999 14.3524 0.556C14.8071 0.82 15.1664 1.17933 15.4304 1.634C15.7091 2.08867 15.8484 2.58733 15.8484 3.13V6.276C15.8484 6.48133 15.8264 6.67933 15.7824 6.87C15.7531 7.046 15.7018 7.21467 15.6284 7.376C15.8924 7.74267 16.0978 8.10933 16.2444 8.476C16.4058 8.828 16.4864 9.18733 16.4864 9.554V13.03C16.4864 13.5727 16.3471 14.0713 16.0684 14.526C15.8044 14.9807 15.4451 15.34 14.9904 15.604C14.5504 15.868 14.0591 16 13.5164 16H0.646438ZM3.68244 13.338H13.4284C13.5311 13.338 13.6191 13.3013 13.6924 13.228C13.7804 13.1547 13.8244 13.0593 13.8244 12.942V9.664C13.8244 9.54667 13.7804 9.45133 13.6924 9.378C13.6191 9.30467 13.5311 9.268 13.4284 9.268H3.68244C3.57977 9.268 3.48444 9.30467 3.39644 9.378C3.32311 9.45133 3.28644 9.54667 3.28644 9.664V12.942C3.28644 13.0593 3.32311 13.1547 3.39644 13.228C3.48444 13.3013 3.57977 13.338 3.68244 13.338ZM3.68244 6.606H12.7684C12.8858 6.606 12.9811 6.56933 13.0544 6.496C13.1278 6.408 13.1644 6.31267 13.1644 6.21V3.218C13.1644 3.10067 13.1278 3.00533 13.0544 2.932C12.9811 2.85867 12.8858 2.822 12.7684 2.822H3.68244C3.57977 2.822 3.48444 2.85867 3.39644 2.932C3.32311 3.00533 3.28644 3.10067 3.28644 3.218V6.21C3.28644 6.31267 3.32311 6.408 3.39644 6.496C3.48444 6.56933 3.57977 6.606 3.68244 6.606Z" fill="white"/>
<path d="M20.0291 16V0.159999H34.5711V2.822H22.6911V6.76H32.2611V9.4H22.6911V16H20.0291Z" fill="#4386EA"/>
</svg>
