<svg width="118" height="22" viewBox="0 0 118 22" fill="none" xmlns="http://www.w3.org/2000/svg">
<path d="M0.565578 17V1.16H12.7976C13.3402 1.16 13.8316 1.292 14.2716 1.556C14.7262 1.82 15.0856 2.17933 15.3496 2.634C15.6282 3.08867 15.7676 3.58733 15.7676 4.13V7.276C15.7676 7.48133 15.7456 7.67933 15.7016 7.87C15.6722 8.046 15.6209 8.21467 15.5476 8.376C15.8116 8.74267 16.0169 9.10933 16.1636 9.476C16.3249 9.828 16.4056 10.1873 16.4056 10.554V14.03C16.4056 14.5727 16.2662 15.0713 15.9876 15.526C15.7236 15.9807 15.3642 16.34 14.9096 16.604C14.4696 16.868 13.9782 17 13.4356 17H0.565578ZM3.60158 14.338H13.3476C13.4502 14.338 13.5382 14.3013 13.6116 14.228C13.6996 14.1547 13.7436 14.0593 13.7436 13.942V10.664C13.7436 10.5467 13.6996 10.4513 13.6116 10.378C13.5382 10.3047 13.4502 10.268 13.3476 10.268H3.60158C3.49891 10.268 3.40358 10.3047 3.31558 10.378C3.24224 10.4513 3.20558 10.5467 3.20558 10.664V13.942C3.20558 14.0593 3.24224 14.1547 3.31558 14.228C3.40358 14.3013 3.49891 14.338 3.60158 14.338ZM3.60158 7.606H12.6876C12.8049 7.606 12.9002 7.56933 12.9736 7.496C13.0469 7.408 13.0836 7.31267 13.0836 7.21V4.218C13.0836 4.10067 13.0469 4.00533 12.9736 3.932C12.9002 3.85867 12.8049 3.822 12.6876 3.822H3.60158C3.49891 3.822 3.40358 3.85867 3.31558 3.932C3.24224 4.00533 3.20558 4.10067 3.20558 4.218V7.21C3.20558 7.31267 3.24224 7.408 3.31558 7.496C3.40358 7.56933 3.49891 7.606 3.60158 7.606ZM20.6743 21.796V19.156H28.4403C28.5429 19.156 28.6309 19.112 28.7043 19.024C28.7923 18.9507 28.8363 18.8627 28.8363 18.76V17H21.4443C20.9163 17 20.4249 16.868 19.9703 16.604C19.5303 16.3253 19.1709 15.966 18.8923 15.526C18.6283 15.086 18.4963 14.5947 18.4963 14.052V4.284H21.1143V13.964C21.1143 14.0813 21.1509 14.184 21.2243 14.272C21.3123 14.3453 21.4149 14.382 21.5323 14.382H28.4403C28.5429 14.382 28.6309 14.3453 28.7043 14.272C28.7923 14.184 28.8363 14.0813 28.8363 13.964V4.284H31.4543V18.848C31.4543 19.4053 31.3223 19.904 31.0583 20.344C30.8089 20.784 30.4569 21.136 30.0023 21.4C29.5623 21.664 29.0709 21.796 28.5283 21.796H20.6743ZM36.7468 17C36.2041 17 35.7055 16.868 35.2508 16.604C34.8108 16.3253 34.4588 15.966 34.1948 15.526C33.9308 15.086 33.7988 14.5947 33.7988 14.052V0.257999H36.4168V4.24H41.5208V6.858H36.4168V13.964C36.4168 14.0813 36.4535 14.184 36.5268 14.272C36.6148 14.3453 36.7175 14.382 36.8348 14.382H41.5208V17H36.7468ZM46.1989 17C45.6562 17 45.1649 16.868 44.7249 16.604C44.2849 16.3253 43.9256 15.966 43.6469 15.526C43.3829 15.086 43.2509 14.5947 43.2509 14.052V7.188C43.2509 6.64533 43.3829 6.154 43.6469 5.714C43.9256 5.274 44.2849 4.922 44.7249 4.658C45.1649 4.37933 45.6562 4.24 46.1989 4.24H53.2609C53.8182 4.24 54.3169 4.37933 54.7569 4.658C55.1969 4.922 55.5489 5.274 55.8129 5.714C56.0769 6.154 56.2089 6.64533 56.2089 7.188V11.94H45.8689V13.964C45.8689 14.0813 45.9056 14.184 45.9789 14.272C46.0669 14.3453 46.1696 14.382 46.2869 14.382H56.2089V17H46.1989ZM45.8689 9.542H53.5909V7.276C53.5909 7.15867 53.5469 7.06333 53.4589 6.99C53.3856 6.902 53.2902 6.858 53.1729 6.858H46.2869C46.1696 6.858 46.0669 6.902 45.9789 6.99C45.9056 7.06333 45.8689 7.15867 45.8689 7.276V9.542Z" fill="white"/>
<path d="M58.6373 17V1.16H73.1793V3.822H61.2993V7.76H70.8693V10.4H61.2993V17H58.6373ZM77.3518 17C76.8091 17 76.3178 16.868 75.8778 16.604C75.4378 16.3253 75.0784 15.966 74.7998 15.526C74.5358 15.086 74.4038 14.5947 74.4038 14.052V0.0379994H77.0438V13.964C77.0438 14.0813 77.0804 14.184 77.1538 14.272C77.2418 14.3453 77.3371 14.382 77.4398 14.382H79.8158V17H77.3518ZM84.3981 17C83.8555 17 83.3641 16.868 82.9241 16.604C82.4841 16.3253 82.1248 15.966 81.8461 15.526C81.5821 15.086 81.4501 14.5947 81.4501 14.052V7.188C81.4501 6.64533 81.5821 6.154 81.8461 5.714C82.1248 5.274 82.4841 4.922 82.9241 4.658C83.3641 4.37933 83.8555 4.24 84.3981 4.24H91.4601C92.0175 4.24 92.5161 4.37933 92.9561 4.658C93.3961 4.922 93.7481 5.274 94.0121 5.714C94.2761 6.154 94.4081 6.64533 94.4081 7.188V14.052C94.4081 14.5947 94.2761 15.086 94.0121 15.526C93.7481 15.966 93.3961 16.3253 92.9561 16.604C92.5161 16.868 92.0175 17 91.4601 17H84.3981ZM84.4861 14.382H91.3721C91.4895 14.382 91.5848 14.3453 91.6581 14.272C91.7461 14.184 91.7901 14.0813 91.7901 13.964V7.276C91.7901 7.15867 91.7461 7.06333 91.6581 6.99C91.5848 6.902 91.4895 6.858 91.3721 6.858H84.4861C84.3688 6.858 84.2661 6.902 84.1781 6.99C84.1048 7.06333 84.0681 7.15867 84.0681 7.276V13.964C84.0681 14.0813 84.1048 14.184 84.1781 14.272C84.2661 14.3453 84.3688 14.382 84.4861 14.382ZM100.165 17L95.1489 4.24H97.9429L101.221 12.226L104.697 4.24H107.535L111.231 12.27L114.267 4.24H117.083L112.265 17H110.197L106.127 8.002L102.255 17H100.165Z" fill="#4386EA"/>
</svg>
